<svg width="112" height="143" viewBox="0 0 112 143" fill="none" xmlns="http://www.w3.org/2000/svg">
<rect x="20.5" y="24.5" width="18" height="48" stroke="black"/>
<rect x="21" y="59" width="17" height="13" fill="#892020"/>
<rect x="80.5" y="24.5" width="18" height="48" stroke="black"/>
<rect x="81" y="59" width="17" height="13" fill="#892020"/>
<rect x="20.5" y="94.5" width="18" height="48" stroke="black"/>
<rect x="21" y="95" width="17" height="47" fill="#20893E"/>
<rect x="80.5" y="94.5" width="18" height="48" stroke="black"/>
<rect x="81" y="95" width="17" height="47" fill="#20894A"/>
<path d="M5.4059 4H4.70135C4.65968 3.79735 4.58677 3.61932 4.4826 3.46591C4.38033 3.3125 4.25533 3.18371 4.1076 3.07955C3.96177 2.97348 3.79983 2.89394 3.6218 2.84091C3.44377 2.78788 3.25817 2.76136 3.06499 2.76136C2.71271 2.76136 2.39358 2.85038 2.1076 3.02841C1.82351 3.20644 1.59718 3.46875 1.42862 3.81534C1.26196 4.16193 1.17862 4.58712 1.17862 5.09091C1.17862 5.5947 1.26196 6.01989 1.42862 6.36648C1.59718 6.71307 1.82351 6.97538 2.1076 7.15341C2.39358 7.33144 2.71271 7.42045 3.06499 7.42045C3.25817 7.42045 3.44377 7.39394 3.6218 7.34091C3.79983 7.28788 3.96177 7.20928 4.1076 7.10511C4.25533 6.99905 4.38033 6.86932 4.4826 6.71591C4.58677 6.56061 4.65968 6.38258 4.70135 6.18182H5.4059C5.35286 6.47917 5.25627 6.74527 5.11612 6.98011C4.97597 7.21496 4.80173 7.41477 4.5934 7.57955C4.38506 7.74242 4.15116 7.86648 3.89169 7.9517C3.63411 8.03693 3.35855 8.07955 3.06499 8.07955C2.56877 8.07955 2.12749 7.95833 1.74112 7.71591C1.35476 7.47348 1.05078 7.12879 0.82919 6.68182C0.607599 6.23485 0.496804 5.70455 0.496804 5.09091C0.496804 4.47727 0.607599 3.94697 0.82919 3.5C1.05078 3.05303 1.35476 2.70833 1.74112 2.46591C2.12749 2.22348 2.56877 2.10227 3.06499 2.10227C3.35855 2.10227 3.63411 2.14489 3.89169 2.23011C4.15116 2.31534 4.38506 2.44034 4.5934 2.60511C4.80173 2.76799 4.97597 2.96686 5.11612 3.2017C5.25627 3.43466 5.35286 3.70076 5.4059 4ZM8.22621 8.09091C7.83227 8.09091 7.48662 7.99716 7.18928 7.80966C6.89382 7.62216 6.66276 7.35985 6.49609 7.02273C6.33132 6.68561 6.24893 6.29167 6.24893 5.84091C6.24893 5.38636 6.33132 4.98958 6.49609 4.65057C6.66276 4.31155 6.89382 4.0483 7.18928 3.8608C7.48662 3.6733 7.83227 3.57955 8.22621 3.57955C8.62015 3.57955 8.96484 3.6733 9.2603 3.8608C9.55765 4.0483 9.78871 4.31155 9.95348 4.65057C10.1201 4.98958 10.2035 5.38636 10.2035 5.84091C10.2035 6.29167 10.1201 6.68561 9.95348 7.02273C9.78871 7.35985 9.55765 7.62216 9.2603 7.80966C8.96484 7.99716 8.62015 8.09091 8.22621 8.09091ZM8.22621 7.48864C8.52545 7.48864 8.77166 7.41193 8.96484 7.25852C9.15803 7.10511 9.30102 6.90341 9.39382 6.65341C9.48662 6.40341 9.53303 6.13258 9.53303 5.84091C9.53303 5.54924 9.48662 5.27746 9.39382 5.02557C9.30102 4.77367 9.15803 4.57008 8.96484 4.41477C8.77166 4.25947 8.52545 4.18182 8.22621 4.18182C7.92696 4.18182 7.68075 4.25947 7.48757 4.41477C7.29439 4.57008 7.1514 4.77367 7.05859 5.02557C6.96579 5.27746 6.91939 5.54924 6.91939 5.84091C6.91939 6.13258 6.96579 6.40341 7.05859 6.65341C7.1514 6.90341 7.29439 7.10511 7.48757 7.25852C7.68075 7.41193 7.92696 7.48864 8.22621 7.48864ZM11.2269 8V3.63636H11.8746V4.31818H11.9315C12.0224 4.08523 12.1692 3.90436 12.3718 3.77557C12.5745 3.64489 12.8178 3.57955 13.1019 3.57955C13.3898 3.57955 13.6294 3.64489 13.8207 3.77557C14.0138 3.90436 14.1644 4.08523 14.2724 4.31818H14.3178C14.4296 4.0928 14.5972 3.91383 14.8207 3.78125C15.0442 3.64678 15.3121 3.57955 15.6246 3.57955C16.0148 3.57955 16.3339 3.7017 16.582 3.94602C16.8301 4.18845 16.9542 4.56629 16.9542 5.07955V8H16.2837V5.07955C16.2837 4.75758 16.1957 4.52746 16.0195 4.3892C15.8434 4.25095 15.636 4.18182 15.3974 4.18182C15.0906 4.18182 14.8529 4.27462 14.6843 4.46023C14.5157 4.64394 14.4315 4.87689 14.4315 5.15909V8H13.7496V5.01136C13.7496 4.76326 13.6692 4.56345 13.5082 4.41193C13.3472 4.25852 13.1398 4.18182 12.886 4.18182C12.7118 4.18182 12.5489 4.22822 12.3974 4.32102C12.2478 4.41383 12.1265 4.54261 12.0337 4.70739C11.9428 4.87027 11.8974 5.05871 11.8974 5.27273V8H11.2269ZM18.18 8V3.63636H18.8278V4.31818H18.8846C18.9755 4.08523 19.1223 3.90436 19.3249 3.77557C19.5276 3.64489 19.771 3.57955 20.055 3.57955C20.3429 3.57955 20.5825 3.64489 20.7738 3.77557C20.967 3.90436 21.1175 4.08523 21.2255 4.31818H21.271C21.3827 4.0928 21.5503 3.91383 21.7738 3.78125C21.9973 3.64678 22.2653 3.57955 22.5778 3.57955C22.9679 3.57955 23.2871 3.7017 23.5352 3.94602C23.7833 4.18845 23.9073 4.56629 23.9073 5.07955V8H23.2369V5.07955C23.2369 4.75758 23.1488 4.52746 22.9727 4.3892C22.7965 4.25095 22.5891 4.18182 22.3505 4.18182C22.0437 4.18182 21.806 4.27462 21.6374 4.46023C21.4689 4.64394 21.3846 4.87689 21.3846 5.15909V8H20.7028V5.01136C20.7028 4.76326 20.6223 4.56345 20.4613 4.41193C20.3003 4.25852 20.0929 4.18182 19.8391 4.18182C19.6649 4.18182 19.502 4.22822 19.3505 4.32102C19.2009 4.41383 19.0797 4.54261 18.9869 4.70739C18.896 4.87027 18.8505 5.05871 18.8505 5.27273V8H18.18ZM27.8832 6.21591V3.63636H28.5536V8H27.8832V7.26136H27.8377C27.7354 7.48295 27.5763 7.6714 27.3604 7.8267C27.1445 7.98011 26.8718 8.05682 26.5423 8.05682C26.2695 8.05682 26.0271 7.99716 25.815 7.87784C25.6029 7.75663 25.4362 7.57481 25.315 7.33239C25.1938 7.08807 25.1332 6.7803 25.1332 6.40909V3.63636H25.8036V6.36364C25.8036 6.68182 25.8926 6.93561 26.0707 7.125C26.2506 7.31439 26.4798 7.40909 26.7582 7.40909C26.9248 7.40909 27.0943 7.36648 27.2667 7.28125C27.4409 7.19602 27.5868 7.06534 27.7042 6.8892C27.8235 6.71307 27.8832 6.48864 27.8832 6.21591ZM30.4521 5.375V8H29.7816V3.63636H30.4293V4.31818H30.4862C30.5884 4.09659 30.7437 3.91856 30.9521 3.78409C31.1604 3.64773 31.4293 3.57955 31.7589 3.57955C32.0543 3.57955 32.3129 3.64015 32.5344 3.76136C32.756 3.88068 32.9284 4.0625 33.0515 4.30682C33.1746 4.54924 33.2362 4.85606 33.2362 5.22727V8H32.5657V5.27273C32.5657 4.92992 32.4767 4.66288 32.2987 4.47159C32.1206 4.27841 31.8763 4.18182 31.5657 4.18182C31.3517 4.18182 31.1604 4.22822 30.9918 4.32102C30.8252 4.41383 30.6935 4.54924 30.5969 4.72727C30.5004 4.9053 30.4521 5.12121 30.4521 5.375ZM34.4613 8V3.63636H35.1317V8H34.4613ZM34.8022 2.90909C34.6715 2.90909 34.5588 2.86458 34.4641 2.77557C34.3713 2.68655 34.3249 2.57955 34.3249 2.45455C34.3249 2.32955 34.3713 2.22254 34.4641 2.13352C34.5588 2.04451 34.6715 2 34.8022 2C34.9329 2 35.0446 2.04451 35.1374 2.13352C35.2321 2.22254 35.2795 2.32955 35.2795 2.45455C35.2795 2.57955 35.2321 2.68655 35.1374 2.77557C35.0446 2.86458 34.9329 2.90909 34.8022 2.90909ZM38.1325 8.09091C37.7234 8.09091 37.3711 7.99432 37.0756 7.80114C36.7802 7.60795 36.5529 7.34186 36.3938 7.00284C36.2347 6.66383 36.1552 6.27652 36.1552 5.84091C36.1552 5.39773 36.2366 5.00663 36.3995 4.66761C36.5643 4.3267 36.7934 4.06061 37.087 3.86932C37.3825 3.67614 37.7272 3.57955 38.1211 3.57955C38.4279 3.57955 38.7044 3.63636 38.9506 3.75C39.1969 3.86364 39.3986 4.02273 39.5558 4.22727C39.7129 4.43182 39.8105 4.67045 39.8484 4.94318H39.1779C39.1268 4.74432 39.0131 4.56818 38.837 4.41477C38.6628 4.25947 38.4279 4.18182 38.1325 4.18182C37.8711 4.18182 37.6419 4.25 37.445 4.38636C37.2499 4.52083 37.0974 4.71117 36.9876 4.95739C36.8796 5.2017 36.8256 5.48864 36.8256 5.81818C36.8256 6.1553 36.8787 6.44886 36.9847 6.69886C37.0927 6.94886 37.2442 7.14299 37.4393 7.28125C37.6362 7.41951 37.8673 7.48864 38.1325 7.48864C38.3067 7.48864 38.4648 7.45833 38.6069 7.39773C38.7489 7.33712 38.8692 7.25 38.9677 7.13636C39.0662 7.02273 39.1362 6.88636 39.1779 6.72727H39.8484C39.8105 6.98485 39.7167 7.21686 39.5671 7.4233C39.4194 7.62784 39.2234 7.79072 38.979 7.91193C38.7366 8.03125 38.4544 8.09091 38.1325 8.09091ZM42.1126 8.10227C41.8361 8.10227 41.5851 8.05019 41.3597 7.94602C41.1344 7.83996 40.9554 7.6875 40.8228 7.48864C40.6902 7.28788 40.6239 7.04545 40.6239 6.76136C40.6239 6.51136 40.6732 6.30871 40.7717 6.15341C40.8701 5.99621 41.0018 5.87311 41.1665 5.78409C41.3313 5.69508 41.5131 5.62879 41.712 5.58523C41.9128 5.53977 42.1145 5.50379 42.3171 5.47727C42.5823 5.44318 42.7972 5.41761 42.962 5.40057C43.1287 5.38163 43.2499 5.35038 43.3256 5.30682C43.4033 5.26326 43.4421 5.1875 43.4421 5.07955V5.05682C43.4421 4.77652 43.3654 4.55871 43.212 4.40341C43.0605 4.24811 42.8304 4.17045 42.5217 4.17045C42.2016 4.17045 41.9506 4.24053 41.7688 4.38068C41.587 4.52083 41.4592 4.67045 41.3853 4.82955L40.7489 4.60227C40.8626 4.33712 41.0141 4.13068 41.2035 3.98295C41.3948 3.83333 41.6031 3.72917 41.8285 3.67045C42.0558 3.60985 42.2792 3.57955 42.4989 3.57955C42.6391 3.57955 42.8001 3.59659 42.9819 3.63068C43.1656 3.66288 43.3427 3.73011 43.5131 3.83239C43.6855 3.93466 43.8285 4.08902 43.9421 4.29545C44.0558 4.50189 44.1126 4.77841 44.1126 5.125V8H43.4421V7.40909H43.408C43.3626 7.50379 43.2868 7.60511 43.1808 7.71307C43.0747 7.82102 42.9336 7.91288 42.7575 7.98864C42.5813 8.06439 42.3664 8.10227 42.1126 8.10227ZM42.2148 7.5C42.48 7.5 42.7035 7.44792 42.8853 7.34375C43.069 7.23958 43.2073 7.10511 43.3001 6.94034C43.3948 6.77557 43.4421 6.60227 43.4421 6.42045V5.80682C43.4137 5.84091 43.3512 5.87216 43.2546 5.90057C43.1599 5.92708 43.0501 5.95076 42.9251 5.97159C42.802 5.99053 42.6817 6.00758 42.5643 6.02273C42.4487 6.03598 42.355 6.04735 42.283 6.05682C42.1088 6.07955 41.9459 6.11648 41.7944 6.16761C41.6448 6.21686 41.5236 6.29167 41.4308 6.39205C41.3398 6.49053 41.2944 6.625 41.2944 6.79545C41.2944 7.02841 41.3806 7.20455 41.5529 7.32386C41.7272 7.44129 41.9478 7.5 42.2148 7.5ZM47.234 3.63636V4.20455H44.9727V3.63636H47.234ZM45.6317 2.59091H46.3022V6.75C46.3022 6.93939 46.3297 7.08144 46.3846 7.17614C46.4414 7.26894 46.5134 7.33144 46.6005 7.36364C46.6895 7.39394 46.7833 7.40909 46.8817 7.40909C46.9556 7.40909 47.0162 7.4053 47.0636 7.39773C47.1109 7.38826 47.1488 7.38068 47.1772 7.375L47.3136 7.97727C47.2681 7.99432 47.2047 8.01136 47.1232 8.02841C47.0418 8.04735 46.9386 8.05682 46.8136 8.05682C46.6242 8.05682 46.4386 8.0161 46.2567 7.93466C46.0768 7.85322 45.9272 7.72917 45.8079 7.5625C45.6905 7.39583 45.6317 7.18561 45.6317 6.93182V2.59091ZM48.2425 8V3.63636H48.913V8H48.2425ZM48.5835 2.90909C48.4528 2.90909 48.3401 2.86458 48.2454 2.77557C48.1526 2.68655 48.1062 2.57955 48.1062 2.45455C48.1062 2.32955 48.1526 2.22254 48.2454 2.13352C48.3401 2.04451 48.4528 2 48.5835 2C48.7141 2 48.8259 2.04451 48.9187 2.13352C49.0134 2.22254 49.0607 2.32955 49.0607 2.45455C49.0607 2.57955 49.0134 2.68655 48.9187 2.77557C48.8259 2.86458 48.7141 2.90909 48.5835 2.90909ZM51.9137 8.09091C51.5198 8.09091 51.1741 7.99716 50.8768 7.80966C50.5813 7.62216 50.3503 7.35985 50.1836 7.02273C50.0188 6.68561 49.9364 6.29167 49.9364 5.84091C49.9364 5.38636 50.0188 4.98958 50.1836 4.65057C50.3503 4.31155 50.5813 4.0483 50.8768 3.8608C51.1741 3.6733 51.5198 3.57955 51.9137 3.57955C52.3076 3.57955 52.6523 3.6733 52.9478 3.8608C53.2451 4.0483 53.4762 4.31155 53.641 4.65057C53.8076 4.98958 53.891 5.38636 53.891 5.84091C53.891 6.29167 53.8076 6.68561 53.641 7.02273C53.4762 7.35985 53.2451 7.62216 52.9478 7.80966C52.6523 7.99716 52.3076 8.09091 51.9137 8.09091ZM51.9137 7.48864C52.2129 7.48864 52.4592 7.41193 52.6523 7.25852C52.8455 7.10511 52.9885 6.90341 53.0813 6.65341C53.1741 6.40341 53.2205 6.13258 53.2205 5.84091C53.2205 5.54924 53.1741 5.27746 53.0813 5.02557C52.9885 4.77367 52.8455 4.57008 52.6523 4.41477C52.4592 4.25947 52.2129 4.18182 51.9137 4.18182C51.6145 4.18182 51.3683 4.25947 51.1751 4.41477C50.9819 4.57008 50.8389 4.77367 50.7461 5.02557C50.6533 5.27746 50.6069 5.54924 50.6069 5.84091C50.6069 6.13258 50.6533 6.40341 50.7461 6.65341C50.8389 6.90341 50.9819 7.10511 51.1751 7.25852C51.3683 7.41193 51.6145 7.48864 51.9137 7.48864ZM55.5849 5.375V8H54.9144V3.63636H55.5621V4.31818H55.619C55.7212 4.09659 55.8765 3.91856 56.0849 3.78409C56.2932 3.64773 56.5621 3.57955 56.8917 3.57955C57.1871 3.57955 57.4457 3.64015 57.6673 3.76136C57.8888 3.88068 58.0612 4.0625 58.1843 4.30682C58.3074 4.54924 58.369 4.85606 58.369 5.22727V8H57.6985V5.27273C57.6985 4.92992 57.6095 4.66288 57.4315 4.47159C57.2534 4.27841 57.0091 4.18182 56.6985 4.18182C56.4845 4.18182 56.2932 4.22822 56.1246 4.32102C55.958 4.41383 55.8263 4.54924 55.7298 4.72727C55.6332 4.9053 55.5849 5.12121 55.5849 5.375ZM20.267 18V12.1818H20.9716V17.375H23.6761V18H20.267ZM26.5057 18.0909C26.0852 18.0909 25.7225 17.9981 25.4176 17.8125C25.1146 17.625 24.8807 17.3636 24.7159 17.0284C24.553 16.6913 24.4716 16.2992 24.4716 15.8523C24.4716 15.4053 24.553 15.0114 24.7159 14.6705C24.8807 14.3277 25.1098 14.0606 25.4034 13.8693C25.6989 13.6761 26.0436 13.5795 26.4375 13.5795C26.6648 13.5795 26.8892 13.6174 27.1108 13.6932C27.3324 13.7689 27.5341 13.892 27.7159 14.0625C27.8977 14.2311 28.0426 14.4545 28.1506 14.733C28.2585 15.0114 28.3125 15.3542 28.3125 15.7614V16.0455H24.9489V15.4659H27.6307C27.6307 15.2197 27.5814 15 27.483 14.8068C27.3864 14.6136 27.2481 14.4612 27.0682 14.3494C26.8902 14.2377 26.6799 14.1818 26.4375 14.1818C26.1705 14.1818 25.9394 14.2481 25.7443 14.3807C25.5511 14.5114 25.4025 14.6818 25.2983 14.892C25.1941 15.1023 25.142 15.3277 25.142 15.5682V15.9545C25.142 16.2841 25.1989 16.5634 25.3125 16.7926C25.428 17.0199 25.5881 17.1932 25.7926 17.3125C25.9972 17.4299 26.2348 17.4886 26.5057 17.4886C26.6818 17.4886 26.8409 17.464 26.983 17.4148C27.1269 17.3636 27.2509 17.2879 27.3551 17.1875C27.4593 17.0852 27.5398 16.9583 27.5966 16.8068L28.2443 16.9886C28.1761 17.2083 28.0616 17.4015 27.9006 17.5682C27.7396 17.733 27.5407 17.8617 27.304 17.9545C27.0672 18.0455 26.8011 18.0909 26.5057 18.0909ZM32.7678 13.6364L31.1541 18H30.4723L28.8587 13.6364H29.5859L30.7905 17.1136H30.8359L32.0405 13.6364H32.7678ZM35.326 18.0909C34.9055 18.0909 34.5429 17.9981 34.2379 17.8125C33.9349 17.625 33.701 17.3636 33.5362 17.0284C33.3733 16.6913 33.2919 16.2992 33.2919 15.8523C33.2919 15.4053 33.3733 15.0114 33.5362 14.6705C33.701 14.3277 33.9302 14.0606 34.2237 13.8693C34.5192 13.6761 34.8639 13.5795 35.2578 13.5795C35.4851 13.5795 35.7095 13.6174 35.9311 13.6932C36.1527 13.7689 36.3544 13.892 36.5362 14.0625C36.718 14.2311 36.8629 14.4545 36.9709 14.733C37.0788 15.0114 37.1328 15.3542 37.1328 15.7614V16.0455H33.7692V15.4659H36.451C36.451 15.2197 36.4018 15 36.3033 14.8068C36.2067 14.6136 36.0684 14.4612 35.8885 14.3494C35.7105 14.2377 35.5002 14.1818 35.2578 14.1818C34.9908 14.1818 34.7597 14.2481 34.5646 14.3807C34.3714 14.5114 34.2228 14.6818 34.1186 14.892C34.0144 15.1023 33.9624 15.3277 33.9624 15.5682V15.9545C33.9624 16.2841 34.0192 16.5634 34.1328 16.7926C34.2483 17.0199 34.4084 17.1932 34.6129 17.3125C34.8175 17.4299 35.0552 17.4886 35.326 17.4886C35.5021 17.4886 35.6612 17.464 35.8033 17.4148C35.9472 17.3636 36.0713 17.2879 36.1754 17.1875C36.2796 17.0852 36.3601 16.9583 36.4169 16.8068L37.0646 16.9886C36.9964 17.2083 36.8819 17.4015 36.7209 17.5682C36.5599 17.733 36.361 17.8617 36.1243 17.9545C35.8875 18.0455 35.6214 18.0909 35.326 18.0909ZM38.8232 12.1818V18H38.1527V12.1818H38.8232Z" fill="black"/>
<path d="M77.2983 2.18182H78.1392L80.1165 7.01136H80.1847L82.1619 2.18182H83.0028V8H82.3438V3.57955H82.2869L80.4688 8H79.8324L78.0142 3.57955H77.9574V8H77.2983V2.18182ZM85.6087 8.10227C85.3321 8.10227 85.0812 8.05019 84.8558 7.94602C84.6304 7.83996 84.4515 7.6875 84.3189 7.48864C84.1863 7.28788 84.12 7.04545 84.12 6.76136C84.12 6.51136 84.1693 6.30871 84.2678 6.15341C84.3662 5.99621 84.4979 5.87311 84.6626 5.78409C84.8274 5.69508 85.0092 5.62879 85.2081 5.58523C85.4089 5.53977 85.6106 5.50379 85.8132 5.47727C86.0784 5.44318 86.2933 5.41761 86.4581 5.40057C86.6248 5.38163 86.746 5.35038 86.8217 5.30682C86.8994 5.26326 86.9382 5.1875 86.9382 5.07955V5.05682C86.9382 4.77652 86.8615 4.55871 86.7081 4.40341C86.5566 4.24811 86.3265 4.17045 86.0178 4.17045C85.6977 4.17045 85.4467 4.24053 85.2649 4.38068C85.0831 4.52083 84.9553 4.67045 84.8814 4.82955L84.245 4.60227C84.3587 4.33712 84.5102 4.13068 84.6996 3.98295C84.8909 3.83333 85.0992 3.72917 85.3246 3.67045C85.5518 3.60985 85.7753 3.57955 85.995 3.57955C86.1352 3.57955 86.2962 3.59659 86.478 3.63068C86.6617 3.66288 86.8388 3.73011 87.0092 3.83239C87.1816 3.93466 87.3246 4.08902 87.4382 4.29545C87.5518 4.50189 87.6087 4.77841 87.6087 5.125V8H86.9382V7.40909H86.9041C86.8587 7.50379 86.7829 7.60511 86.6768 7.71307C86.5708 7.82102 86.4297 7.91288 86.2536 7.98864C86.0774 8.06439 85.8625 8.10227 85.6087 8.10227ZM85.7109 7.5C85.9761 7.5 86.1996 7.44792 86.3814 7.34375C86.5651 7.23958 86.7034 7.10511 86.7962 6.94034C86.8909 6.77557 86.9382 6.60227 86.9382 6.42045V5.80682C86.9098 5.84091 86.8473 5.87216 86.7507 5.90057C86.656 5.92708 86.5462 5.95076 86.4212 5.97159C86.2981 5.99053 86.1778 6.00758 86.0604 6.02273C85.9448 6.03598 85.8511 6.04735 85.7791 6.05682C85.6049 6.07955 85.442 6.11648 85.2905 6.16761C85.1409 6.21686 85.0196 6.29167 84.9268 6.39205C84.8359 6.49053 84.7905 6.625 84.7905 6.79545C84.7905 7.02841 84.8767 7.20455 85.049 7.32386C85.2232 7.44129 85.4439 7.5 85.7109 7.5ZM88.8324 8V3.63636H89.4801V4.29545H89.5256C89.6051 4.07955 89.7491 3.90436 89.9574 3.76989C90.1657 3.63542 90.4006 3.56818 90.6619 3.56818C90.7112 3.56818 90.7727 3.56913 90.8466 3.57102C90.9205 3.57292 90.9763 3.57576 91.0142 3.57955V4.26136C90.9915 4.25568 90.9394 4.24716 90.858 4.2358C90.7784 4.22254 90.6941 4.21591 90.6051 4.21591C90.393 4.21591 90.2036 4.26042 90.0369 4.34943C89.8722 4.43655 89.7415 4.55777 89.6449 4.71307C89.5502 4.86648 89.5028 5.04167 89.5028 5.23864V8H88.8324ZM91.8089 8V3.63636H92.4794V8H91.8089ZM92.1499 2.90909C92.0192 2.90909 91.9065 2.86458 91.8118 2.77557C91.719 2.68655 91.6726 2.57955 91.6726 2.45455C91.6726 2.32955 91.719 2.22254 91.8118 2.13352C91.9065 2.04451 92.0192 2 92.1499 2C92.2805 2 92.3923 2.04451 92.4851 2.13352C92.5798 2.22254 92.6271 2.32955 92.6271 2.45455C92.6271 2.57955 92.5798 2.68655 92.4851 2.77557C92.3923 2.86458 92.2805 2.90909 92.1499 2.90909ZM95.6051 3.63636V4.20455H93.3438V3.63636H95.6051ZM94.0028 2.59091H94.6733V6.75C94.6733 6.93939 94.7008 7.08144 94.7557 7.17614C94.8125 7.26894 94.8845 7.33144 94.9716 7.36364C95.0606 7.39394 95.1544 7.40909 95.2528 7.40909C95.3267 7.40909 95.3873 7.4053 95.4347 7.39773C95.482 7.38826 95.5199 7.38068 95.5483 7.375L95.6847 7.97727C95.6392 7.99432 95.5758 8.01136 95.4943 8.02841C95.4129 8.04735 95.3097 8.05682 95.1847 8.05682C94.9953 8.05682 94.8097 8.0161 94.6278 7.93466C94.4479 7.85322 94.2983 7.72917 94.179 7.5625C94.0616 7.39583 94.0028 7.18561 94.0028 6.93182V2.59091ZM97.8977 8.10227C97.6212 8.10227 97.3703 8.05019 97.1449 7.94602C96.9195 7.83996 96.7405 7.6875 96.608 7.48864C96.4754 7.28788 96.4091 7.04545 96.4091 6.76136C96.4091 6.51136 96.4583 6.30871 96.5568 6.15341C96.6553 5.99621 96.7869 5.87311 96.9517 5.78409C97.1165 5.69508 97.2983 5.62879 97.4972 5.58523C97.6979 5.53977 97.8996 5.50379 98.1023 5.47727C98.3674 5.44318 98.5824 5.41761 98.7472 5.40057C98.9138 5.38163 99.035 5.35038 99.1108 5.30682C99.1884 5.26326 99.2273 5.1875 99.2273 5.07955V5.05682C99.2273 4.77652 99.1506 4.55871 98.9972 4.40341C98.8456 4.24811 98.6155 4.17045 98.3068 4.17045C97.9867 4.17045 97.7358 4.24053 97.554 4.38068C97.3722 4.52083 97.2443 4.67045 97.1705 4.82955L96.5341 4.60227C96.6477 4.33712 96.7992 4.13068 96.9886 3.98295C97.1799 3.83333 97.3883 3.72917 97.6136 3.67045C97.8409 3.60985 98.0644 3.57955 98.2841 3.57955C98.4242 3.57955 98.5852 3.59659 98.767 3.63068C98.9508 3.66288 99.1278 3.73011 99.2983 3.83239C99.4706 3.93466 99.6136 4.08902 99.7273 4.29545C99.8409 4.50189 99.8977 4.77841 99.8977 5.125V8H99.2273V7.40909H99.1932C99.1477 7.50379 99.072 7.60511 98.9659 7.71307C98.8598 7.82102 98.7188 7.91288 98.5426 7.98864C98.3665 8.06439 98.1515 8.10227 97.8977 8.10227ZM98 7.5C98.2652 7.5 98.4886 7.44792 98.6705 7.34375C98.8542 7.23958 98.9924 7.10511 99.0852 6.94034C99.1799 6.77557 99.2273 6.60227 99.2273 6.42045V5.80682C99.1989 5.84091 99.1364 5.87216 99.0398 5.90057C98.9451 5.92708 98.8352 5.95076 98.7102 5.97159C98.5871 5.99053 98.4669 6.00758 98.3494 6.02273C98.2339 6.03598 98.1402 6.04735 98.0682 6.05682C97.8939 6.07955 97.7311 6.11648 97.5795 6.16761C97.4299 6.21686 97.3087 6.29167 97.2159 6.39205C97.125 6.49053 97.0795 6.625 97.0795 6.79545C97.0795 7.02841 97.1657 7.20455 97.3381 7.32386C97.5123 7.44129 97.733 7.5 98 7.5ZM101.792 2.18182V8H101.121V2.18182H101.792ZM71.0934 13.6364C71.0593 13.3485 70.921 13.125 70.6786 12.9659C70.4362 12.8068 70.1388 12.7273 69.7866 12.7273C69.529 12.7273 69.3036 12.7689 69.1104 12.8523C68.9192 12.9356 68.7695 13.0502 68.6616 13.196C68.5555 13.3419 68.5025 13.5076 68.5025 13.6932C68.5025 13.8485 68.5394 13.982 68.6133 14.0938C68.689 14.2036 68.7856 14.2955 68.9031 14.3693C69.0205 14.4413 69.1436 14.5009 69.2724 14.5483C69.4012 14.5937 69.5195 14.6307 69.6275 14.6591L70.2184 14.8182C70.3699 14.858 70.5385 14.9129 70.7241 14.983C70.9116 15.053 71.0906 15.1487 71.261 15.2699C71.4334 15.3892 71.5754 15.5426 71.6871 15.7301C71.7989 15.9176 71.8548 16.1477 71.8548 16.4205C71.8548 16.7348 71.7724 17.0189 71.6076 17.2727C71.4447 17.5265 71.2061 17.7282 70.8917 17.8778C70.5792 18.0275 70.1995 18.1023 69.7525 18.1023C69.3358 18.1023 68.975 18.035 68.6701 17.9006C68.3671 17.7661 68.1284 17.5786 67.9542 17.3381C67.7818 17.0975 67.6843 16.8182 67.6616 16.5H68.3888C68.4078 16.7197 68.4817 16.9015 68.6104 17.0455C68.7411 17.1875 68.9059 17.2936 69.1048 17.3636C69.3055 17.4318 69.5214 17.4659 69.7525 17.4659C70.0214 17.4659 70.2629 17.4223 70.4769 17.3352C70.6909 17.2462 70.8604 17.1231 70.9854 16.9659C71.1104 16.8068 71.1729 16.6212 71.1729 16.4091C71.1729 16.2159 71.119 16.0587 71.011 15.9375C70.9031 15.8163 70.761 15.7178 70.5849 15.642C70.4087 15.5663 70.2184 15.5 70.0138 15.4432L69.2979 15.2386C68.8434 15.108 68.4835 14.9214 68.2184 14.679C67.9532 14.4366 67.8207 14.1193 67.8207 13.7273C67.8207 13.4015 67.9087 13.1174 68.0849 12.875C68.2629 12.6307 68.5015 12.4413 68.8008 12.3068C69.1019 12.1705 69.4381 12.1023 69.8093 12.1023C70.1843 12.1023 70.5176 12.1695 70.8093 12.304C71.101 12.4366 71.332 12.6184 71.5025 12.8494C71.6748 13.0805 71.7657 13.3428 71.7752 13.6364H71.0934ZM74.2063 18.1023C73.9298 18.1023 73.6789 18.0502 73.4535 17.946C73.2281 17.84 73.0491 17.6875 72.9165 17.4886C72.784 17.2879 72.7177 17.0455 72.7177 16.7614C72.7177 16.5114 72.7669 16.3087 72.8654 16.1534C72.9639 15.9962 73.0955 15.8731 73.2603 15.7841C73.4251 15.6951 73.6069 15.6288 73.8058 15.5852C74.0065 15.5398 74.2082 15.5038 74.4109 15.4773C74.676 15.4432 74.891 15.4176 75.0558 15.4006C75.2224 15.3816 75.3436 15.3504 75.4194 15.3068C75.497 15.2633 75.5359 15.1875 75.5359 15.0795V15.0568C75.5359 14.7765 75.4592 14.5587 75.3058 14.4034C75.1542 14.2481 74.9241 14.1705 74.6154 14.1705C74.2953 14.1705 74.0444 14.2405 73.8626 14.3807C73.6808 14.5208 73.5529 14.6705 73.479 14.8295L72.8427 14.6023C72.9563 14.3371 73.1078 14.1307 73.2972 13.983C73.4885 13.8333 73.6969 13.7292 73.9222 13.6705C74.1495 13.6098 74.373 13.5795 74.5927 13.5795C74.7328 13.5795 74.8938 13.5966 75.0756 13.6307C75.2594 13.6629 75.4364 13.7301 75.6069 13.8324C75.7792 13.9347 75.9222 14.089 76.0359 14.2955C76.1495 14.5019 76.2063 14.7784 76.2063 15.125V18H75.5359V17.4091H75.5018C75.4563 17.5038 75.3806 17.6051 75.2745 17.7131C75.1684 17.821 75.0273 17.9129 74.8512 17.9886C74.6751 18.0644 74.4601 18.1023 74.2063 18.1023ZM74.3086 17.5C74.5737 17.5 74.7972 17.4479 74.979 17.3438C75.1628 17.2396 75.301 17.1051 75.3938 16.9403C75.4885 16.7756 75.5359 16.6023 75.5359 16.4205V15.8068C75.5075 15.8409 75.445 15.8722 75.3484 15.9006C75.2537 15.9271 75.1438 15.9508 75.0188 15.9716C74.8957 15.9905 74.7754 16.0076 74.658 16.0227C74.5425 16.036 74.4487 16.0473 74.3768 16.0568C74.2025 16.0795 74.0397 16.1165 73.8881 16.1676C73.7385 16.2169 73.6173 16.2917 73.5245 16.392C73.4336 16.4905 73.3881 16.625 73.3881 16.7955C73.3881 17.0284 73.4743 17.2045 73.6467 17.3239C73.8209 17.4413 74.0415 17.5 74.3086 17.5ZM79.3278 13.6364V14.2045H77.0664V13.6364H79.3278ZM77.7255 12.5909H78.396V16.75C78.396 16.9394 78.4234 17.0814 78.4783 17.1761C78.5352 17.2689 78.6071 17.3314 78.6942 17.3636C78.7833 17.3939 78.877 17.4091 78.9755 17.4091C79.0494 17.4091 79.11 17.4053 79.1573 17.3977C79.2047 17.3883 79.2425 17.3807 79.271 17.375L79.4073 17.9773C79.3619 17.9943 79.2984 18.0114 79.217 18.0284C79.1355 18.0473 79.0323 18.0568 78.9073 18.0568C78.7179 18.0568 78.5323 18.0161 78.3505 17.9347C78.1706 17.8532 78.021 17.7292 77.9016 17.5625C77.7842 17.3958 77.7255 17.1856 77.7255 16.9318V12.5909ZM80.3363 18V13.6364H81.0067V18H80.3363ZM80.6772 12.9091C80.5465 12.9091 80.4338 12.8646 80.3391 12.7756C80.2463 12.6866 80.1999 12.5795 80.1999 12.4545C80.1999 12.3295 80.2463 12.2225 80.3391 12.1335C80.4338 12.0445 80.5465 12 80.6772 12C80.8079 12 80.9196 12.0445 81.0124 12.1335C81.1071 12.2225 81.1545 12.3295 81.1545 12.4545C81.1545 12.5795 81.1071 12.6866 81.0124 12.7756C80.9196 12.8646 80.8079 12.9091 80.6772 12.9091ZM85.3256 14.6136L84.7234 14.7841C84.6855 14.6837 84.6296 14.5862 84.5558 14.4915C84.4838 14.3949 84.3853 14.3153 84.2603 14.2528C84.1353 14.1903 83.9753 14.1591 83.7802 14.1591C83.5131 14.1591 83.2906 14.2206 83.1126 14.3438C82.9364 14.465 82.8484 14.6193 82.8484 14.8068C82.8484 14.9735 82.909 15.1051 83.0302 15.2017C83.1514 15.2983 83.3408 15.3788 83.5984 15.4432L84.2461 15.6023C84.6362 15.697 84.927 15.8419 85.1183 16.0369C85.3095 16.2301 85.4052 16.4792 85.4052 16.7841C85.4052 17.0341 85.3332 17.2576 85.1893 17.4545C85.0472 17.6515 84.8484 17.8068 84.5927 17.9205C84.337 18.0341 84.0397 18.0909 83.7006 18.0909C83.2556 18.0909 82.8872 17.9943 82.5955 17.8011C82.3039 17.608 82.1192 17.3258 82.0415 16.9545L82.6779 16.7955C82.7385 17.0303 82.8531 17.2064 83.0217 17.3239C83.1921 17.4413 83.4147 17.5 83.6893 17.5C84.0018 17.5 84.2499 17.4337 84.4336 17.3011C84.6192 17.1667 84.712 17.0057 84.712 16.8182C84.712 16.6667 84.659 16.5398 84.5529 16.4375C84.4469 16.3333 84.284 16.2557 84.0643 16.2045L83.337 16.0341C82.9374 15.9394 82.6438 15.7926 82.4563 15.5938C82.2707 15.393 82.1779 15.142 82.1779 14.8409C82.1779 14.5947 82.247 14.3769 82.3853 14.1875C82.5254 13.9981 82.7158 13.8494 82.9563 13.7415C83.1987 13.6335 83.4734 13.5795 83.7802 13.5795C84.212 13.5795 84.551 13.6742 84.7972 13.8636C85.0453 14.053 85.2215 14.303 85.3256 14.6136ZM88.3576 13.6364V14.2045H86.0053V13.6364H88.3576ZM86.7099 18V13.0341C86.7099 12.7841 86.7686 12.5758 86.886 12.4091C87.0034 12.2424 87.1559 12.1174 87.3434 12.0341C87.5309 11.9508 87.7288 11.9091 87.9371 11.9091C88.1019 11.9091 88.2364 11.9223 88.3406 11.9489C88.4447 11.9754 88.5224 12 88.5735 12.0227L88.3803 12.6023C88.3462 12.5909 88.2989 12.5767 88.2383 12.5597C88.1796 12.5426 88.1019 12.5341 88.0053 12.5341C87.7837 12.5341 87.6237 12.59 87.5252 12.7017C87.4286 12.8134 87.3803 12.9773 87.3803 13.1932V18H86.7099ZM90.4563 18.1023C90.1798 18.1023 89.9289 18.0502 89.7035 17.946C89.4781 17.84 89.2991 17.6875 89.1665 17.4886C89.034 17.2879 88.9677 17.0455 88.9677 16.7614C88.9677 16.5114 89.0169 16.3087 89.1154 16.1534C89.2139 15.9962 89.3455 15.8731 89.5103 15.7841C89.6751 15.6951 89.8569 15.6288 90.0558 15.5852C90.2565 15.5398 90.4582 15.5038 90.6609 15.4773C90.926 15.4432 91.141 15.4176 91.3058 15.4006C91.4724 15.3816 91.5936 15.3504 91.6694 15.3068C91.747 15.2633 91.7859 15.1875 91.7859 15.0795V15.0568C91.7859 14.7765 91.7092 14.5587 91.5558 14.4034C91.4042 14.2481 91.1741 14.1705 90.8654 14.1705C90.5453 14.1705 90.2944 14.2405 90.1126 14.3807C89.9308 14.5208 89.8029 14.6705 89.729 14.8295L89.0927 14.6023C89.2063 14.3371 89.3578 14.1307 89.5472 13.983C89.7385 13.8333 89.9469 13.7292 90.1722 13.6705C90.3995 13.6098 90.623 13.5795 90.8427 13.5795C90.9828 13.5795 91.1438 13.5966 91.3256 13.6307C91.5094 13.6629 91.6864 13.7301 91.8569 13.8324C92.0292 13.9347 92.1722 14.089 92.2859 14.2955C92.3995 14.5019 92.4563 14.7784 92.4563 15.125V18H91.7859V17.4091H91.7518C91.7063 17.5038 91.6306 17.6051 91.5245 17.7131C91.4184 17.821 91.2773 17.9129 91.1012 17.9886C90.9251 18.0644 90.7101 18.1023 90.4563 18.1023ZM90.5586 17.5C90.8237 17.5 91.0472 17.4479 91.229 17.3438C91.4128 17.2396 91.551 17.1051 91.6438 16.9403C91.7385 16.7756 91.7859 16.6023 91.7859 16.4205V15.8068C91.7575 15.8409 91.695 15.8722 91.5984 15.9006C91.5037 15.9271 91.3938 15.9508 91.2688 15.9716C91.1457 15.9905 91.0254 16.0076 90.908 16.0227C90.7925 16.036 90.6987 16.0473 90.6268 16.0568C90.4525 16.0795 90.2897 16.1165 90.1381 16.1676C89.9885 16.2169 89.8673 16.2917 89.7745 16.392C89.6836 16.4905 89.6381 16.625 89.6381 16.7955C89.6381 17.0284 89.7243 17.2045 89.8967 17.3239C90.0709 17.4413 90.2915 17.5 90.5586 17.5ZM95.4528 18.0909C95.0437 18.0909 94.6914 17.9943 94.396 17.8011C94.1005 17.608 93.8732 17.3419 93.7141 17.0028C93.555 16.6638 93.4755 16.2765 93.4755 15.8409C93.4755 15.3977 93.5569 15.0066 93.7198 14.6676C93.8846 14.3267 94.1138 14.0606 94.4073 13.8693C94.7028 13.6761 95.0475 13.5795 95.4414 13.5795C95.7482 13.5795 96.0247 13.6364 96.271 13.75C96.5172 13.8636 96.7189 14.0227 96.8761 14.2273C97.0333 14.4318 97.1308 14.6705 97.1687 14.9432H96.4982C96.4471 14.7443 96.3335 14.5682 96.1573 14.4148C95.9831 14.2595 95.7482 14.1818 95.4528 14.1818C95.1914 14.1818 94.9622 14.25 94.7653 14.3864C94.5702 14.5208 94.4177 14.7112 94.3079 14.9574C94.1999 15.2017 94.146 15.4886 94.146 15.8182C94.146 16.1553 94.199 16.4489 94.305 16.6989C94.413 16.9489 94.5645 17.143 94.7596 17.2812C94.9566 17.4195 95.1876 17.4886 95.4528 17.4886C95.627 17.4886 95.7852 17.4583 95.9272 17.3977C96.0692 17.3371 96.1895 17.25 96.288 17.1364C96.3865 17.0227 96.4566 16.8864 96.4982 16.7273H97.1687C97.1308 16.9848 97.0371 17.2169 96.8874 17.4233C96.7397 17.6278 96.5437 17.7907 96.2994 17.9119C96.0569 18.0312 95.7747 18.0909 95.4528 18.0909ZM100.047 13.6364V14.2045H97.7852V13.6364H100.047ZM98.4442 12.5909H99.1147V16.75C99.1147 16.9394 99.1422 17.0814 99.1971 17.1761C99.2539 17.2689 99.3259 17.3314 99.413 17.3636C99.502 17.3939 99.5958 17.4091 99.6942 17.4091C99.7681 17.4091 99.8287 17.4053 99.8761 17.3977C99.9234 17.3883 99.9613 17.3807 99.9897 17.375L100.126 17.9773C100.081 17.9943 100.017 18.0114 99.9357 18.0284C99.8543 18.0473 99.7511 18.0568 99.6261 18.0568C99.4367 18.0568 99.2511 18.0161 99.0692 17.9347C98.8893 17.8532 98.7397 17.7292 98.6204 17.5625C98.503 17.3958 98.4442 17.1856 98.4442 16.9318V12.5909ZM101.055 18V13.6364H101.725V18H101.055ZM101.396 12.9091C101.265 12.9091 101.153 12.8646 101.058 12.7756C100.965 12.6866 100.919 12.5795 100.919 12.4545C100.919 12.3295 100.965 12.2225 101.058 12.1335C101.153 12.0445 101.265 12 101.396 12C101.527 12 101.638 12.0445 101.731 12.1335C101.826 12.2225 101.873 12.3295 101.873 12.4545C101.873 12.5795 101.826 12.6866 101.731 12.7756C101.638 12.8646 101.527 12.9091 101.396 12.9091ZM104.726 18.0909C104.332 18.0909 103.987 17.9972 103.689 17.8097C103.394 17.6222 103.163 17.3598 102.996 17.0227C102.831 16.6856 102.749 16.2917 102.749 15.8409C102.749 15.3864 102.831 14.9896 102.996 14.6506C103.163 14.3116 103.394 14.0483 103.689 13.8608C103.987 13.6733 104.332 13.5795 104.726 13.5795C105.12 13.5795 105.465 13.6733 105.76 13.8608C106.058 14.0483 106.289 14.3116 106.453 14.6506C106.62 14.9896 106.703 15.3864 106.703 15.8409C106.703 16.2917 106.62 16.6856 106.453 17.0227C106.289 17.3598 106.058 17.6222 105.76 17.8097C105.465 17.9972 105.12 18.0909 104.726 18.0909ZM104.726 17.4886C105.025 17.4886 105.272 17.4119 105.465 17.2585C105.658 17.1051 105.801 16.9034 105.894 16.6534C105.987 16.4034 106.033 16.1326 106.033 15.8409C106.033 15.5492 105.987 15.2775 105.894 15.0256C105.801 14.7737 105.658 14.5701 105.465 14.4148C105.272 14.2595 105.025 14.1818 104.726 14.1818C104.427 14.1818 104.181 14.2595 103.988 14.4148C103.794 14.5701 103.651 14.7737 103.559 15.0256C103.466 15.2775 103.419 15.5492 103.419 15.8409C103.419 16.1326 103.466 16.4034 103.559 16.6534C103.651 16.9034 103.794 17.1051 103.988 17.2585C104.181 17.4119 104.427 17.4886 104.726 17.4886ZM108.397 15.375V18H107.727V13.6364H108.375V14.3182H108.431C108.534 14.0966 108.689 13.9186 108.897 13.7841C109.106 13.6477 109.375 13.5795 109.704 13.5795C110 13.5795 110.258 13.6402 110.48 13.7614C110.701 13.8807 110.874 14.0625 110.997 14.3068C111.12 14.5492 111.181 14.8561 111.181 15.2273V18H110.511V15.2727C110.511 14.9299 110.422 14.6629 110.244 14.4716C110.066 14.2784 109.822 14.1818 109.511 14.1818C109.297 14.1818 109.106 14.2282 108.937 14.321C108.77 14.4138 108.639 14.5492 108.542 14.7273C108.446 14.9053 108.397 15.1212 108.397 15.375Z" fill="black"/>
</svg>
